<svg xmlns="http://www.w3.org/2000/svg" width="9.22" height="9.25" viewBox="0 0 9.22 9.25">
  <defs>
    <style>
      .cls-1 {
        fill: #fff;
        fill-rule: evenodd;
      }
    </style>
  </defs>
  <path id="Shape_2_copy_10" data-name="Shape 2 copy 10" class="cls-1" d="M1366.36,2449.22h-7.45a0.879,0.879,0,0,1-.88-0.87v-0.01a0.879,0.879,0,0,1,.87-0.88h0.01l5.34,0.01-5.77-5.77a0.863,0.863,0,0,1,0-1.24,0.881,0.881,0,0,1,1.24,0l5.77,5.76-0.01-5.33a0.885,0.885,0,0,1,1.77,0v7.45a0.87,0.87,0,0,1-.82.91A0.074,0.074,0,0,1,1366.36,2449.22Z" transform="translate(-1358.03 -2440)"/>
</svg>
