<svg xmlns="http://www.w3.org/2000/svg" width="43.53" height="43.78" viewBox="0 0 43.53 43.78">
  <defs>
    <style>
      .cls-1 {
        fill: #939598;
        fill-rule: evenodd;
      }
    </style>
  </defs>
  <path class="cls-1" d="M1097.76,2203.79a21.9,21.9,0,1,1,21.76-21.89A21.851,21.851,0,0,1,1097.76,2203.79Zm6.03-34.68a0.318,0.318,0,0,0-.32-0.33h-4.43a4.712,4.712,0,0,0-4.7,4.72v3.75H1092a0.333,0.333,0,0,0-.33.33v3.89a0.333,0.333,0,0,0,.33.33h2.34v12.89a0.327,0.327,0,0,0,.33.33h4.69a0.318,0.318,0,0,0,.32-0.33V2181.8h3.4a0.344,0.344,0,0,0,.33-0.31l0.33-3.88a0.34,0.34,0,0,0-.33-0.36h-3.73v-2.76a1.178,1.178,0,0,1,1.17-1.17h2.62a0.324,0.324,0,0,0,.32-0.33v-3.88Z" transform="translate(-1076 -2160)"/>
</svg>
