<svg xmlns="http://www.w3.org/2000/svg" width="43.56" height="43.78" viewBox="0 0 43.56 43.78">
  <defs>
    <style>
      .cls-1 {
        fill: #939598;
        fill-rule: evenodd;
      }
    </style>
  </defs>
  <path class="cls-1" d="M1162.44,2203.99a21.89,21.89,0,1,1,21.77-21.89A21.86,21.86,0,0,1,1162.44,2203.99Zm7.34-30.77a1.62,1.62,0,1,0,1.61,1.62A1.611,1.611,0,0,0,1169.78,2173.22Zm-7.16,2.08a6.805,6.805,0,1,0,6.77,6.8A6.794,6.794,0,0,0,1162.62,2175.3Zm0,11.16a4.36,4.36,0,1,1,4.33-4.36A4.353,4.353,0,0,1,1162.62,2186.46Zm13.66-10.01a8.277,8.277,0,0,0-8.26-8.3h-10.9a8.269,8.269,0,0,0-8.25,8.3v10.95a8.275,8.275,0,0,0,8.25,8.3h10.9a8.284,8.284,0,0,0,8.26-8.3v-10.95Zm-2.59,10.95a5.685,5.685,0,0,1-5.67,5.7h-10.9a5.685,5.685,0,0,1-5.67-5.7v-10.95a5.685,5.685,0,0,1,5.67-5.7h10.9a5.685,5.685,0,0,1,5.67,5.7v10.95Z" transform="translate(-1140.66 -2160.22)"/>
</svg>
