<svg xmlns="http://www.w3.org/2000/svg" width="11.91" height="15.47" viewBox="0 0 11.91 15.47">
  <defs>
    <style>
      .cls-1 {
        fill: #939598;
        fill-rule: evenodd;
      }
    </style>
  </defs>
  <path class="cls-1" d="M1290.72,1999.54a5.924,5.924,0,0,0-5.94,5.86c0,3.16,5.49,9.25,5.71,9.5a0.37,0.37,0,0,0,.26.1,0.276,0.276,0,0,0,.23-0.1c0.23-.25,5.71-6.34,5.71-9.5A5.97,5.97,0,0,0,1290.72,1999.54Zm0,8.73a2.865,2.865,0,1,1,2.91-2.87A2.889,2.889,0,0,1,1290.72,2008.27Z" transform="translate(-1284.78 -1999.53)"/>
</svg>
