<svg xmlns="http://www.w3.org/2000/svg" width="68.59" height="40.687" viewBox="0 0 68.59 40.687">
  <defs>
    <style>
      .cls-1 {
        fill: #939598;
        fill-rule: evenodd;
      }
    </style>
  </defs>
  <path class="cls-1" d="M1739.49,393.659a27.839,27.839,0,0,1-8.14-1.682,12.074,12.074,0,0,0-9.81-1.389c-5.13,1.389-9.75,5.484-12.68,11.407-5.13,10.237-3.52,22.011,3.74,26.837a11.881,11.881,0,0,0,6.66,1.974,12.815,12.815,0,0,0,3.3-.438c4.91-1.317,9.45-5.192,12.38-10.676a15.2,15.2,0,0,1,10.92-.147c2.93,5.411,7.33,9.214,12.16,10.457a12.1,12.1,0,0,0,9.82-1.536c7.11-4.753,8.79-16.306,3.74-26.325-2.93-5.777-7.48-9.872-12.53-11.188a12.313,12.313,0,0,0-9.67,1.316,25.194,25.194,0,0,1-5.64,1.244A13.8,13.8,0,0,1,1739.49,393.659Zm25.93,31.151a7.569,7.569,0,0,1-6.3.951c-3.73-.951-7.32-4.242-9.67-8.7a2.862,2.862,0,0,0-1.54-1.39h0l-0.29-.073a19.611,19.611,0,0,0-14.95.293,3.041,3.041,0,0,0-1.39,1.316c-2.34,4.607-6.08,7.971-9.82,8.922a7.9,7.9,0,0,1-6.44-.951c-5.28-3.51-6.31-13.163-2.28-21.207,2.35-4.68,6.09-8.116,9.9-9.14a8.328,8.328,0,0,1,2.27-.293,7.531,7.531,0,0,1,4.17,1.243c0.15,0.074.3,0.147,0.44,0.22a31.408,31.408,0,0,0,21.32.439l0.22-.074c0.15-.073.37-0.146,0.52-0.219a7.686,7.686,0,0,1,6.37-.95c3.81,1.023,7.4,4.314,9.74,8.921C1771.58,411.94,1770.55,421.373,1765.42,424.81ZM1757,401.191a7.313,7.313,0,1,0,7.32,7.312A7.343,7.343,0,0,0,1757,401.191Zm0,10.237a2.925,2.925,0,1,1,2.93-2.925A2.937,2.937,0,0,1,1757,411.428Zm-30.04-4.972h-2.2v-2.194a2.2,2.2,0,0,0-4.4,0v2.194h-2.19a2.194,2.194,0,1,0,0,4.387h2.19v2.194a2.2,2.2,0,0,0,4.4,0v-2.194h2.2A2.194,2.194,0,1,0,1726.96,406.456Z" transform="translate(-1705.88 -390.125)"/>
</svg>
