<svg xmlns="http://www.w3.org/2000/svg" width="12.031" height="12.062" viewBox="0 0 12.031 12.062">
  <defs>
    <style>
      .cls-1 {
        fill: #939598;
        fill-rule: evenodd;
      }
    </style>
  </defs>
  <path class="cls-1" d="M222.914,889.214h-9.733a1.145,1.145,0,0,1-1.151-1.141v-0.01a1.145,1.145,0,0,1,1.142-1.15h0.009l6.967,0.008-7.534-7.53a1.146,1.146,0,1,1,1.622-1.62l7.535,7.529-0.009-6.962a1.152,1.152,0,0,1,2.3,0v9.725A1.115,1.115,0,0,1,223,889.25,0.085,0.085,0,0,1,222.914,889.214Z" transform="translate(-212.031 -877.188)"/>
</svg>
