<svg xmlns="http://www.w3.org/2000/svg" width="43.54" height="43.78" viewBox="0 0 43.54 43.78">
  <defs>
    <style>
      .cls-1 {
        fill: #939598;
        fill-rule: evenodd;
      }
    </style>
  </defs>
  <path class="cls-1" d="M1227.89,2203.79a21.89,21.89,0,1,1,21.77-21.89A21.858,21.858,0,0,1,1227.89,2203.79Zm13.03-25.21a5.6,5.6,0,0,0-5.58-5.62h-14.5a5.6,5.6,0,0,0-5.59,5.62v6.83a5.608,5.608,0,0,0,5.59,5.63h14.5a5.606,5.606,0,0,0,5.58-5.63v-6.83Zm-9.14,3.76-5.78,3.19a0.322,0.322,0,0,1-.48-0.33v-6.55a0.321,0.321,0,0,1,.48-0.33l5.82,3.36A0.378,0.378,0,0,1,1231.78,2182.34Z" transform="translate(-1206.12 -2160)"/>
</svg>
